<svg xmlns="http://www.w3.org/2000/svg" viewBox="-31 -1429 7154 1979"><g fill="#1e3329"><path d="M461.224-873.799v734.033q0 27.901 5.91 42.197 5.91 14.295 18.27 20.345l29.678 9.2q18.66 12.241 18.66 32.202Q533.743 0 498.043 0H70.401q-18.19 0-28.626-9.73T31.34-35.823q0-12.94 6.645-21.841 6.645-8.9 18.416-16.001l27.959-8.5q13.12-5.29 18.46-17.21t5.34-38.052v-552.868q0-20.5-5.06-29.981-5.06-9.48-17.22-13.66l-33.32-2.28q-11.75-6.081-17.435-13.752-5.685-7.67-5.685-19.07 0-12.981 8.335-22.822t28.507-17.36l290.957-89.98q25.081-9.871 39.507-13.046 14.425-3.176 27.536-3.176 19.01 0 27.976 11.856t8.966 29.766m-28.34 237.342-34.142-38.722 37.84-37.74Q547.322-823.78 639.658-868.74q92.335-44.96 167.945-44.96 100.63 0 160.886 64.885t60.255 196.356v519.113q0 27.541 4.62 39.137t15.48 17.105l21.219 8q19.74 13.381 19.74 33.282Q1089.803 0 1051.821 0h-407.62q-33.48 0-33.48-35.822 0-19.961 18.72-32.202l22.959-8.06q16.02-7.22 21.36-22.805t5.34-46.996v-446.872q0-57.52-26.48-90.73t-70.599-33.209q-33.8 0-62.184 12.22t-54.154 36.84Zm567.83-.4-33.762-38.342 34.8-41.16q87.731-102.671 168.557-150.006 80.825-47.336 163.905-47.336 96.93 0 155.245 59.556t70.915 181.164l58.87 537.355q3.18 27.731 8.109 38.961t15.03 16.9l19.319 7.24q10.82 7.451 16.99 15.592 6.17 8.14 6.17 21.111 0 16.93-10.15 26.376T1646.881 0h-423.2Q1190.2 0 1190.2-35.822q0-19.521 19.1-32.202l22.96-8.06q16.02-7.19 22.95-22.6t3.749-45.681l-44.049-448.012q-5.88-58.28-29.444-91.3-23.565-33.019-67.334-33.019-24.27 0-45.85 11.86t-41.809 33.38ZM2365.913-256.89 2175.65 146.142l-364.311-833.33q-23.67-55.01-45.014-87.469-21.345-32.46-49.394-42.88-16.46-9.42-21.38-17.27t-4.92-19.251q0-19.071 10.455-29.357t27.526-10.286h495.48q16.931 0 26.152 9.161t9.22 26.741q0 13.911-6.935 21.012-6.935 7.1-20.536 14.78l-36.968 9.79q-22.95 7.82-29.065 33.241t11.975 68.34Zm-209.053 415.8L2219.98-.778l43.592-96.754 223.987-605.184q16.81-45.86 7.98-69.88t-41.77-37.18l-36.078-12.2q-14-7.691-19.45-15.051-5.451-7.36-5.451-20.742 0-17.56 10.275-26.746t27.437-9.186h230.649q17.72 0 28.086 9.176t10.366 26.726q0 11.461-5.045 19.201-5.046 7.74-18.306 16.971-44.639 14.95-66.039 38.756-21.4 23.805-45.46 85.825L2235.235 158.2q-45.09 118.13-81.83 191.266-36.741 73.135-84.682 106.875-47.94 33.74-129.462 33.74-109.301 0-174.867-66.296t-65.566-163.597q0-70.501 35.7-110.142t93.402-39.64q44.72 0 75.47 25.285t56.401 88.636l20.33 50.94q13.871 34.19 29.191 57.71t39.5 23.52q17.32 0 33.21-24.055 15.89-24.054 33.874-68.753t40.954-104.778M3563.802-647.21q0 75.952-44 119.932t-120.272 43.98q-77.67 0-119.081-44.855-41.41-44.855-41.41-124.546v-69.499q0-51.969-20.2-79.018-20.2-27.05-56.048-27.05-36.87 0-65.354 29.524t-44.074 86.839-15.59 140.742q0 116.07 33.975 195.184t93.045 119.138 134.359 40.025q78.319 0 131.398-25.424 53.08-25.424 78.02-82.503 11.3-11.91 18.386-15.47t13.946-2.99q8.45.57 13.79 7.815t4.7 22.556q-10.599 98.84-63.664 173.535t-141.425 116.95-205.571 42.255q-124.77 0-223.481-52.13-98.71-52.13-155.566-152.315-56.855-100.186-56.855-243.766 0-139.84 59.955-249.28t167.18-172.81 249.256-63.37q121.26 0 204.616 35.506 83.355 35.505 126.66 95.85t43.305 135.196M4121.49-913.68q143.521 0 251.882 59.85 108.36 59.85 169.13 165.855t60.77 244.615q0 132.34-63.145 236.81T4365.25-41.61t-258.4 60.47q-143.14 0-251.66-59.235T3685.96-204.44t-60.71-242.28q0-132.77 63.61-238.21t175.58-167.095 257.05-61.656m59.811 848.315q35.32-6.08 53.698-50.844 18.38-44.764 17.904-131.648t-23.496-218.593q-22.7-132.5-50.94-214.523-28.24-82.024-60.789-117.778t-68.808-29.085q-34.959 6.63-53.323 51.47t-17.039 131.178 23.396 217.928q23.08 131.878 50.915 214.107t60.399 118.049q32.564 35.82 68.083 29.74M5072.663-515.42q0-134.47 37.065-222.735t97.325-131.906 130.11-43.64q83.83 0 128.936 55.53 45.105 55.531 45.105 167.352 0 108.822-46.905 160.632t-119.706 51.81q-70.941 0-104.547-36.204-33.605-36.206-35.885-103.036l-1.14-38.36q-.57-24.04-9.08-37.3t-28.58-13.26q-19.579 0-35.108 19.88-15.53 19.88-24.21 61.234t-8.68 105.402Zm15.96-348.119 8.74 259.117v457.816q0 24.861 8.57 39.937t26.251 18.805l80.619 15.28q17.15 2.9 24.556 12.76 7.406 9.861 7.406 24.002 0 16.17-10.246 25.996Q5224.274 0 5204.503 0h-497.871q-18.22 0-28.686-9.746-10.466-9.745-10.466-26.106 0-12.97 6.675-21.886t18.536-16.016l27.809-8.41q13.12-5.67 18.46-17.4t5.34-37.862v-558.568q0-20.5-5.06-29.98t-17.221-13.661l-33.318-2.28q-11.75-6.081-17.436-13.751-5.685-7.67-5.685-19.071 0-12.981 8.525-23.012 8.526-10.03 28.317-17.17l294.377-80.101q21.281-7.78 35.517-11.24 14.235-3.46 24.686-3.46 14.45 0 21.706 10.335 7.255 10.335 9.915 35.846M5981.524-874.939v734.033q0 28.091 5.625 40.581t18.174 18.16l28.92 9.01q12.02 6.691 18 15.512 5.98 8.82 5.98 21.821 0 16.93-10.15 26.376T6020.24 0h-430.679q-17.431 0-27.677-9.446t-10.245-26.376q0-12.94 5.79-21.746t18.13-15.526l29.1-9.07q13.12-5.67 18.46-18.16t5.34-40.522v-551.728q0-19.93-5.346-28.556-5.345-8.625-17.505-12.806l-30.468-2.28q-13.46-6.08-18.861-13.75-5.4-7.671-5.4-19.642 0-13.55 8.335-22.82 8.335-9.271 27.366-16.792l290.388-89.41q26.791-9.87 40.647-13.33t26.966-3.46q18.44 0 27.691 11.285t9.25 29.196m-180.382-107.85q-91.141 0-146.302-54.535t-55.16-138.746q0-84.261 55.19-138.797 55.19-54.535 146.272-54.535 91.71 0 147.741 54.54 56.03 54.54 56.03 138.772 0 84.23-56.045 138.766t-147.726 54.535M6623.89-118.292v-19.16l-23.59 8.73V-765.32q0-39.35-18.59-61.974t-49.51-22.624q-31.658 0-51.127 18.14-19.47 18.139-19.47 48.398v80.42q0 70.27-48.235 115.805t-130.787 45.536q-64.921 0-100.862-32.29t-35.94-94.332q0-58.67 49.135-115.175 49.136-56.505 146.986-93.425 97.851-36.92 243.272-36.92 188.691 0 279.011 72.29t90.32 204.73v457.416q0 20.8 9.155 32.99t25.795 12.19q12.94 0 24.305-8.14t16.124-28.12q2.55-4.19 6-6.125t7.8-1.935q9.531 0 14.672 8.026 5.14 8.025 5.14 20.656 0 31.71-24.865 71.481-24.866 39.77-77.126 68.96-52.26 29.191-135.18 29.191-99.201 0-150.817-39.85t-51.616-98.292m-523.55-83.788q0-125.891 103.29-197.006 103.29-71.116 319.05-71.116 45.26 0 76.465 7.995t54.555 22.425l-19.941 48.623q-22.21-13.1-41.914-18.14t-45.784-5.04q-44.048 0-69.913 38.96t-25.864 114.757q0 72.29 26.374 107.054 26.375 34.764 69.584 34.764 25.7 0 49.744-14.445t37.223-35.693l16.94 47.182q-39.4 68.17-117.344 104.905Q6454.86 19.88 6364.32 19.88q-118.22 0-191.1-62.46t-72.88-159.5"/></g></svg>